<?xml version="1.0" encoding="utf-8"?>
<!-- Generator: Adobe Illustrator 25.3.0, SVG Export Plug-In . SVG Version: 6.00 Build 0)  -->
<svg version="1.1" id="Layer_1" xmlns="http://www.w3.org/2000/svg" xmlns:xlink="http://www.w3.org/1999/xlink" x="0px" y="0px"
	 viewBox="0 0 204.1 56.5" style="enable-background:new 0 0 204.1 56.5;" xml:space="preserve">
<style type="text/css">
	.st0{fill:#FFFFFF;}
	.st1{fill:url(#SVGID_1_);}
	.st2{fill:#58595B;}
</style>
<path class="st0" d="M85.7,33.2c2,1.2,3,2.9,3,5.2c0,1.9-0.7,3.5-2,4.8c-1.4,1.2-3,1.9-5,1.9h-9.6V22.2H81c1.9,0,3.6,0.6,4.9,1.8
	c1.3,1.2,2,2.7,2,4.6C87.9,30.5,87.2,32.1,85.7,33.2z M81,26.4h-4.4v5H81c0.7,0,1.3-0.2,1.7-0.7c0.5-0.5,0.7-1.1,0.7-1.8
	c0-0.7-0.2-1.3-0.7-1.8C82.3,26.7,81.7,26.4,81,26.4z M81.7,40.9c0.8,0,1.4-0.3,1.9-0.8c0.5-0.5,0.7-1.2,0.7-2
	c0-0.8-0.2-1.4-0.7-1.9c-0.5-0.5-1.1-0.8-1.9-0.8h-5.1v5.4H81.7z M95.2,38.6c0.6,2,2.1,3.1,4.5,3.1c1.6,0,2.8-0.5,3.6-1.6l3.4,2
	c-1.6,2.3-3.9,3.5-7,3.5c-2.7,0-4.8-0.8-6.4-2.4c-1.6-1.6-2.4-3.7-2.4-6.2c0-2.5,0.8-4.5,2.4-6.1c1.6-1.7,3.6-2.5,6.1-2.5
	c2.4,0,4.3,0.8,5.8,2.5c1.5,1.7,2.3,3.7,2.3,6.1c0,0.5-0.1,1.1-0.2,1.7H95.2z M95.1,35.4h8.2c-0.2-1.1-0.7-1.9-1.5-2.5
	c-0.7-0.5-1.6-0.8-2.5-0.8c-1.1,0-2,0.3-2.8,0.9C95.9,33.5,95.4,34.3,95.1,35.4z M119.4,28.3c1.8,0,3.2,0.6,4.4,1.8
	c1.2,1.2,1.7,2.8,1.7,5v10h-4.2v-9.5c0-1.1-0.3-1.9-0.9-2.5c-0.6-0.6-1.4-0.9-2.3-0.9c-1.1,0-1.9,0.3-2.6,1c-0.6,0.7-1,1.7-1,3v8.8
	h-4.2V22.2h4.2v8.4C115.6,29.1,117.2,28.3,119.4,28.3z M142.8,43c-1.7,1.7-3.7,2.5-6.1,2.5s-4.4-0.8-6.1-2.5
	c-1.6-1.7-2.5-3.7-2.5-6.1s0.8-4.4,2.5-6.1c1.7-1.7,3.7-2.5,6.1-2.5s4.4,0.8,6.1,2.5c1.7,1.7,2.5,3.7,2.5,6.1S144.4,41.4,142.8,43z
	 M133.6,40.1c0.8,0.8,1.9,1.3,3.1,1.3s2.3-0.4,3.1-1.3c0.8-0.8,1.3-1.9,1.3-3.2s-0.4-2.4-1.3-3.2c-0.8-0.8-1.9-1.3-3.1-1.3
	s-2.3,0.4-3.1,1.3c-0.8,0.8-1.2,1.9-1.2,3.2S132.8,39.3,133.6,40.1z M160.4,22.2h4.2v22.8h-4.2v-1.9c-1.2,1.6-3,2.4-5.2,2.4
	c-2.2,0-4-0.8-5.6-2.5c-1.5-1.7-2.3-3.7-2.3-6.1s0.8-4.4,2.3-6.1c1.5-1.7,3.4-2.5,5.6-2.5c2.3,0,4,0.8,5.2,2.4V22.2z M152.7,40.2
	c0.9,0.8,1.9,1.3,3.2,1.3c1.3,0,2.4-0.4,3.2-1.3c0.8-0.9,1.3-2,1.3-3.3c0-1.3-0.4-2.4-1.3-3.3c-0.8-0.9-1.9-1.3-3.2-1.3
	c-1.3,0-2.4,0.4-3.2,1.3c-0.8,0.8-1.3,1.9-1.3,3.3C151.5,38.3,151.9,39.4,152.7,40.2z M168.4,45.1V21.2h4.2v23.8H168.4z M179.8,38.6
	c0.6,2,2.1,3.1,4.5,3.1c1.6,0,2.8-0.5,3.6-1.6l3.4,2c-1.6,2.3-3.9,3.5-7,3.5c-2.7,0-4.8-0.8-6.4-2.4s-2.4-3.7-2.4-6.2
	c0-2.5,0.8-4.5,2.4-6.1c1.6-1.7,3.6-2.5,6.1-2.5c2.4,0,4.3,0.8,5.8,2.5c1.5,1.7,2.3,3.7,2.3,6.1c0,0.5-0.1,1.1-0.2,1.7H179.8z
	 M179.8,35.4h8.2c-0.2-1.1-0.7-1.9-1.5-2.5c-0.7-0.5-1.6-0.8-2.5-0.8c-1.1,0-2,0.3-2.8,0.9C180.5,33.5,180,34.3,179.8,35.4z
	 M199.2,31.6c0.4-1,1-1.8,1.9-2.3c0.9-0.5,1.9-0.8,3-0.8v4.7c-1.3-0.2-2.4,0.1-3.4,0.8c-1,0.7-1.5,1.8-1.5,3.4v7.8h-4.2V28.7h4.2
	V31.6z"/>
<radialGradient id="SVGID_1_" cx="-150.6966" cy="289.9066" r="1" gradientTransform="matrix(5.4 15.6 16.0931 -5.5707 -3816.1682 4003.051)" gradientUnits="userSpaceOnUse">
	<stop  offset="0" style="stop-color:#18ADFA"/>
	<stop  offset="1" style="stop-color:#0B5C7E"/>
</radialGradient>
<path class="st1" d="M37.1,6L37.1,6c0-0.2,0.1-0.3,0.2-0.3c0.1,0,0.2,0,0.3,0.1c0.9,2,1.7,4.1,1.7,6.5c0,0.1,0,0.2,0,0.4
	c-0.6-0.4-1.3-0.8-1.9-1.1c0.1-0.8,0.2-1.6,0.1-2.4C37.4,8.1,37.3,7,37.1,6z M3.1,11.5L3.1,11.5c1.4,0,2.7,0.4,3.7,1.1l-0.2-0.8
	c2.2,1.5,3.9,5,4,5.2c0,0,0,0,0,0c0,0,0,0,0,0c1.1,1.7,2.1,3.6,3.5,5.4c0.9,1.2,2,2.4,3.5,3.3c0.1,0.1,0.2,0.1,0.3,0.2l0.3,0.2
	l0.6,0.3c0.4,0.2,0.9,0.3,1.3,0.5c0.4,0.1,0.8,0.2,1.2,0.3L21,26.5c-0.1-0.2-0.2-0.5-0.3-0.8c-0.1-0.3-0.2-0.5-0.2-0.8l-0.1-0.8
	c0-0.3-0.1-0.5-0.1-0.8c0-0.4-0.1-0.9-0.1-1.3c-1.7,0-3.9-0.5-5.8-2.7l2.3,0C14.8,18,13.1,15.9,11,14c-1.1-1-2.3-1.9-3.7-2.4
	c-0.2-0.1-0.3-0.1-0.5-0.2l-0.5-0.1c-0.4-0.1-0.7-0.1-1.1-0.2c-0.2,0-0.4,0-0.5,0l-0.5,0c-0.4,0-0.7,0.1-1.1,0.2
	c-0.1,0-0.2,0.1-0.1,0.2C2.9,11.5,3,11.5,3.1,11.5z M65.6,22.2c-1,0.4-2,1.1-3,1.9c-1,0.8-1.9,1.8-2.7,2.9c-1.2,1.6-2.2,3.3-3.2,4.9
	l1.9-1.1c-2,5.7-7.9,7.6-8.1,7.7c-0.4,0.1-0.8,0.2-1.2,0.3c-0.2,0-0.3,0-0.5,0.1h0c0,0,0-0.1,0-0.1c-0.1-0.2-0.5-0.4-0.6-0.6
	c0-0.1-0.1-0.2-0.1-0.2c1-0.8,2-1.6,2.9-2.6c0.6-0.6,1.2-1.3,1.8-2.1c0.6-0.8,1.1-1.6,1.5-2.5c0.4-0.9,0.7-1.9,0.8-3
	c0.1-1,0-2.1-0.2-3c-0.5-1.9-1.4-3.4-2.2-4.8c-0.7-1.1-1.4-2.2-2-3.3v0c-0.1-0.1-2.6-4.4-1.6-6.3l0.6,1.3c0.3-1.2,1-2.4,2-3.5
	c1-1.2,2.2-2.2,3.5-3.1l0,0c0.1-0.1,0.1-0.2,0.1-0.3c-0.1-0.1-0.2-0.2-0.3-0.1c-1.4,0.8-2.8,1.6-4,2.7c-0.6,0.5-1.2,1.1-1.7,1.8
	c-0.5,0.7-1,1.5-1.2,2.3c-0.2,0.4-0.2,0.9-0.3,1.3c0,0.5-0.1,0.9,0,1.4c0,0.9,0.2,1.8,0.5,2.6c0.5,1.7,1.2,3.1,1.9,4.6
	c0.5,1.2,1,2.4,1.2,3.4c1.3-1,2-2,2-2c1,1.7-1.9,5.2-3.3,6.8c0,0-0.1,0.1-0.1,0.1c-0.2,0.2-0.3,0.4-0.5,0.6
	c-0.1,0.1-0.1,0.1-0.1,0.1c0,0,0,0,0,0c-0.4,0.4-0.8,0.7-1.3,1.1c-0.8,0.6-1.6,1.1-2.5,1.6c0,0,0,0,0,0c-0.2-0.1-0.4-0.2-0.5-0.3
	c-0.2-0.2-0.4-0.3-0.5-0.5c-0.2-0.2,0-0.7-0.2-0.9c0,0,0,0,0,0c0,0,0,0,0,0c0.1-0.5,0.2-1,0.3-1.5l0.2-1.1l0.1-0.5l0.1-0.5l0.1-1.1
	c0-0.4,0-0.7,0.1-1.1c0-0.2,0-0.4,0-0.6l0-0.6c0-0.4,0-0.7-0.1-1.1c-0.1-1.5-0.5-3.1-1.3-4.5c-0.8-1.4-1.8-2.6-3-3.5
	c-1.8-1.4-3.7-2.3-5.4-3.2c0,0,0,0,0,0c0,0,0,0,0,0c-0.5-0.2-4.8-2.2-4.9-3.8l0.8,0.4c-0.6-1-1-2.1-1-3.3c0-0.1-0.1-0.2-0.2-0.2
	c-0.1,0-0.2,0.1-0.2,0.2v0c-0.2,1.3,0,2.7,0.5,4c0.3,0.7,0.7,1.2,1.1,1.8c0.4,0.5,0.9,1,1.4,1.5c1,0.9,2.1,1.7,3.1,2.5
	c0.9,0.7,1.8,1.5,2.5,2.2l-0.3-2.7c3.3,2.9,2.4,8.7,2.4,8.7c0,0.3-0.1,0.5-0.1,0.8L40,24.7c0,0.1-0.1,0.3-0.1,0.4
	c-0.1,0.3-0.1,0.5-0.2,0.8l-0.3,0.8l-0.1,0.4l-0.2,0.4l-0.3,0.8c-0.1,0.3-0.3,0.6-0.4,1c-0.2-0.1-0.4-0.1-0.6-0.2
	c-0.2,0-0.3-1-0.6-1c-0.1,0-0.2,0.1-0.3,0.2c-0.3-0.6-0.5-1.2-0.7-1.7c0,0-3.1-5-1.6-7.1l1.4,2.5c0-0.1,0-0.2,0.1-0.2
	c0.3-0.8,0.7-1.7,1.2-2.7c-0.2-0.3-0.3-0.6-0.5-0.9c-0.5-0.7-1.1-1.5-1.8-1.9c-0.2,0.3-0.4,0.5-0.7,0.8c-0.7,0.8-1.4,1.7-2.1,2.8
	c-0.7,1.1-1.2,2.4-1.5,3.7c-0.3,1.2-0.3,2.4-0.3,3.6c-0.8-0.5-1.4-1.1-1.9-1.7l-0.1-0.2c0-0.1-0.1-0.1-0.1-0.2l-0.2-0.4
	c-0.1-0.1-0.1-0.3-0.2-0.4L27.7,24c0,0-3.5-4.3-3.2-7.1l2.4,2.2c0-0.5,0-1,0-1.4c0-1.6,0-3.4-0.1-5.1c-0.2-1.8-0.5-3.6-1.3-5.2
	c-0.7-1.7-1.8-3.1-3.1-4.3c-1.3-1.2-2.7-2.1-4.1-3c-0.1-0.1-0.3,0-0.4,0.1c-0.1,0.1-0.1,0.3,0,0.4l0,0c1.2,1.1,2.4,2.2,3.3,3.5
	c0.5,0.7,1,1.5,1.3,2.3l0.7-0.8l0.3,4.7l0,0c0,0.8,0,1.6,0,2.4c-0.1,1.5-0.4,3.1-0.7,4.7c-0.3,1.6-0.6,3.4-0.6,5.3
	c0,0.5,0,1,0.1,1.5c0,0.3,0.1,0.5,0.1,0.8l0.1,0.8c0.1,0.3,0.1,0.5,0.2,0.8c0.1,0.3,0.1,0.5,0.3,0.8l0.3,0.7
	c0.1,0.1,0.1,0.2,0.2,0.4l0.2,0.3c0.7,1.2,1.5,2.3,2.5,3.3l0,0c-0.2,0-0.5-0.1-0.6,0c-0.2,0.2,0.1,0.8,0,1c-0.2,0.2-0.8-0.1-0.9,0.1
	c0,0-0.1,0.1-0.1,0.1c-0.3-0.4-0.6-0.7-0.9-1.1L23,31.4c-0.2-0.2-0.4-0.4-0.6-0.5c-0.8-0.7-1.6-1.2-2.4-1.6
	c-0.4-0.2-0.8-0.4-1.1-0.5c-0.4-0.1-0.7-0.3-1.1-0.4c-1.4-0.4-2.7-0.7-4-0.8c-2.5-0.4-4.9-0.6-7.2-1.7c-1.2-0.5-2.3-1.3-3.4-2.4
	c-1.1-1.1-2-2.4-2.8-3.9l0,0c-0.1-0.1-0.2-0.2-0.3-0.2C0,19.4,0,19.5,0,19.7c0.7,1.6,1.5,3.2,2.6,4.6c1.1,1.4,2.4,2.6,3.7,3.5
	c1.3,0.9,2.7,1.6,4,2.1c1.3,0.5,2.6,1,3.9,1.4c0.4,0.2,0.8,0.3,1.2,0.5l-2.3-2.2c5.6,1.7,7.9,5.9,8,6.1c0,0,0,0,0,0l0,0
	c0.4,0.6,0.7,1.2,0.9,2c-0.2,0.1-0.3,0.2-0.3,0.3c-0.1,0.2-0.5,0.4-0.5,0.6c-0.1,0.2,0.5,0.6,0.5,0.9c0,0.1-0.1,0.2-0.2,0.3
	c0,0,0,0,0,0c-0.1,0-0.3,0-0.4-0.1l-0.4-0.1c-0.2-0.1-0.5-0.1-0.7-0.2c0,0-4.6-0.9-6.4-5.5l1.5,0.9c-0.2-0.4-0.4-0.9-0.6-1.3
	c-1-0.5-2-1.2-3-1.7c0.3,1.5,0.7,3,1.2,4.5c0.6,1.5,1.4,3.1,2.5,4.5c1.1,1.4,2.4,2.4,3.7,3.2c0.3,0.2,0.7,0.4,1,0.5l0.5,0.3
	c0.2,0.1,0.3,0.1,0.5,0.2c0.3,0.1,0.6,0.2,0.8,0.3c0,0.2,0,0.4,0,0.6c0.1,0.2,0.1,0.5,0.2,0.7c0.1,0.2,0.2,0.4,0.3,0.6
	c0.1,0.2,0.3,0.4,0.4,0.6c0.1,0.2-0.1,0.6,0,0.8c0.1,0.2,0.2,0.5,0.3,0.7c0.1,0.2-0.1,0.6,0,0.8c0.1,0.2,1-0.1,1.1,0.1
	c0.1,0.2,0,0.6,0.2,0.8c0.2,0.2,0.3,0.3,0.5,0.5c0.2,0.2,0.2,0.5,0.4,0.6c0.2,0.2,0.1,0.6,0.3,0.8c0.2,0.2,1-0.4,1.2-0.2
	c0.2,0.2,0.4,0.3,0.6,0.4c0.2,0.1,0.4,0.3,0.6,0.4c0.2,0.1,0.2,0.5,0.4,0.6c0.2,0.1,0.5,0,0.7,0.1c0.2,0.1,0.3,0.5,0.5,0.6
	c0.2,0.1,0.6-0.2,0.8-0.1c0.2,0.1,0.2,0.9,0.4,1c0.2,0.1,0.5,0,0.7,0.1c0.2,0.1,0.5,0,0.7,0.1c0.2,0,0.4,0.3,0.7,0.3
	c0.2,0,0.5,0.1,0.7,0.1c0.2,0,0.5-0.4,0.8-0.4c0.2,0,0.5,0.6,0.7,0.6c0.2,0,0.5-0.9,0.7-0.9c0.2,0,0.5,0.6,0.8,0.6
	c0.2,0,0.4-0.7,0.6-0.7c0.2,0,0.5-0.1,0.7-0.1c0.2,0,0.5,0,0.7-0.1c0.2-0.1,0.4-0.1,0.7-0.2c0.2-0.1,0.4-0.2,0.6-0.3
	c0.2-0.1,0.6,0.3,0.8,0.2c0.2-0.1,0.4-0.3,0.6-0.5c0.2-0.1,0.3-0.5,0.5-0.6c0.2-0.1,0.4-0.2,0.6-0.4c0.2-0.1,0.7,0.1,0.9,0
	c0.2-0.1,0.6,0,0.8-0.2c0.2-0.2-0.1-0.8,0.1-1c0.2-0.2,0.8,0.1,1,0c0.2-0.2,0-0.7,0.2-0.8c0.2-0.2,0.6-0.1,0.7-0.3
	c0.2-0.2,0.1-0.5,0.3-0.7c0.1-0.2,0.7-0.1,0.8-0.3c0.1-0.2-0.1-0.6,0.1-0.8c0.1-0.2,0-0.5,0.1-0.8c0.1-0.2,0.5-0.3,0.6-0.5
	c0.1-0.2,0.4-0.4,0.5-0.6c0.1-0.2-0.4-0.7-0.4-0.9c0.1-0.2,0.3-0.4,0.3-0.6c0.1-0.2,0-0.5,0.1-0.7c0-0.2,0-0.3,0-0.5
	c0.4-0.1,0.8-0.3,1.2-0.4c1.2-0.5,2.5-1.3,3.6-2.2c1.1-1,2.2-2.2,3-3.4c0.8-1.3,1.4-2.5,2-3.7c1.1-2.5,1.9-4.8,3.1-7
	c0.6-1.1,1.2-2.1,2-3c0.8-0.9,1.6-1.7,2.6-2.4c0.1,0,0.1-0.1,0.1-0.2C65.7,22.2,65.7,22.2,65.6,22.2z M12.8,25.7
	c0-0.1,0-0.1-0.1-0.2c-0.2-0.4-0.3-0.8-0.6-1.2c-0.2-0.4-0.4-0.8-0.7-1.1c-0.5-0.7-1.1-1.2-1.7-1.7c-0.6-0.4-1.2-0.8-1.9-1
	c-0.4-0.2-0.5,0.1-0.1,0.5c1.7,1.2,2.5,3,2.5,3l-0.1-1.4c0.6,0.6,0.9,1.7,1.1,2.9C11.8,25.6,12.3,25.7,12.8,25.7z M56.6,25.4
	c0.1-0.2,0.9-2.3,2.7-3.6l-0.7,1.6c0,0,0.1,0,0.1-0.1c0.6-0.5,1.2-0.9,1.8-1.4c0.6-0.5,1.3-1,1.8-1.7c0.6-0.6,1.1-1.4,1.4-2.2
	c0.3-0.8,0.4-1.6,0.3-2.3c0-0.1-0.1-0.2-0.2-0.2c-0.1,0-0.2,0.1-0.2,0.2l0,0c-0.1,0.7-0.3,1.4-0.7,2c-0.3,0.6-0.8,1.1-1.4,1.5
	c-1.1,0.9-2.4,1.4-3.8,2.2c-0.7,0.4-1.4,0.8-2,1.3c0.3,0.7,0.6,1.4,0.8,2.2C56.6,25.1,56.6,25.2,56.6,25.4z"/>
<path class="st0" d="M41.4,48.7c-1.8,0.4-7-1.4-7-1.4C31.2,40.6,36,35.8,36,35.8s2.7,1.6,5.1,2.5c0.2,0.3,0.4,0.8,0.7,0.9
	c0.3,0.1,0.9-0.4,0.9-0.4c0.5,0.1,0.9,0.2,1.2,0.2c1.9-0.2,2.5-0.7,2.5-0.7C48.6,44.3,43.3,48.3,41.4,48.7z"/>
<path class="st2" d="M42.9,40.4c0,0.3,0,0.6-0.1,1c0,0,0,0,0,0c0,0,0,0.1,0,0.1c-0.6,2.9-3.2,5.2-3.2,5.2s0.3-2.3,0.9-5.2
	c0.2-1.2,0.5-2.3,0.7-3.1c0.6,0.2,1.1,0.4,1.6,0.6C42.8,39.3,42.9,39.8,42.9,40.4z"/>
<path class="st0" d="M42.6,41.4c0.3,0,0.6-0.2,0.6-0.6c0-0.3-0.2-0.6-0.6-0.6c-0.3,0-0.6,0.2-0.6,0.6C42,41.1,42.3,41.4,42.6,41.4z"
	/>
<path class="st0" d="M41.7,41.6c0.1,0,0.2-0.1,0.2-0.2s-0.1-0.2-0.2-0.2s-0.2,0.1-0.2,0.2S41.6,41.6,41.7,41.6z"/>
</svg>
